#define max_width 10
#define max_height 10
static char max_bits[] = {
    0x78, 0x00, 0xFE, 0x01, 0xFE, 0x01, 0xFF, 0x03, 0xFF, 0x03, 0xFF, 0x03,
    0xFF, 0x03, 0xFE, 0x01, 0xFE, 0x01, 0x78, 0x00 };