#define max_width 12
#define max_height 12
static char max_bits[] = {
    0xF8, 0x01, 0xFE, 0x07, 0xFE, 0x07, 0xFF, 0x0F, 0xFF, 0x0F, 0xFF, 0x0F, 
    0xFF, 0x0F, 0xFF, 0x0F, 0xFF, 0x0F, 0xFE, 0x07, 0xFE, 0x07, 0xF8, 0x01, 
};